<svg id="visual" viewBox="0 0 900 600" width="900" height="600" xmlns="http://www.w3.org/2000/svg" xmlns:xlink="http://www.w3.org/1999/xlink" version="1.1"><path d="M0 575L12.5 564.2C25 553.3 50 531.7 75 519.2C100 506.7 125 503.3 150 517.8C175 532.3 200 564.7 225 580.7C250 596.7 275 596.3 300 596.3C325 596.3 350 596.7 375 597.2C400 597.7 425 598.3 450 588.7C475 579 500 559 525 552.8C550 546.7 575 554.3 600 559C625 563.7 650 565.3 675 570C700 574.7 725 582.3 750 574.5C775 566.7 800 543.3 825 537.8C850 532.3 875 544.7 887.5 550.8L900 557L900 601L887.5 601C875 601 850 601 825 601C800 601 775 601 750 601C725 601 700 601 675 601C650 601 625 601 600 601C575 601 550 601 525 601C500 601 475 601 450 601C425 601 400 601 375 601C350 601 325 601 300 601C275 601 250 601 225 601C200 601 175 601 150 601C125 601 100 601 75 601C50 601 25 601 12.5 601L0 601Z" fill="#C1BAA6" stroke-linecap="round" stroke-linejoin="miter"></path></svg>